<?xml version="1.0" encoding="utf-8"?>
<!-- Generator: Adobe Illustrator 21.0.0, SVG Export Plug-In . SVG Version: 6.00 Build 0)  -->
<svg version="1.1" id="Laag_1" xmlns="http://www.w3.org/2000/svg" xmlns:xlink="http://www.w3.org/1999/xlink" x="0px" y="0px"
	 viewBox="0 0 397 143" style="enable-background:new 0 0 397 143;" xml:space="preserve">
<g>
	<path d="M351.9,54.5c0.2-0.1,0.4-0.4,0.6-0.6c1.9-2.1,3.7-4.2,5.6-6.3c2-2.2,4-4.5,5.9-6.7c1.4-1.5,2.7-3.1,4.1-4.6
		c0.1-0.1,0.2-0.1,0.4,0c1.5,1.1,2.7,2.4,3.8,3.9c0.1,0.1,0.1,0.2-0.1,0.3c-1.5,1.1-2.9,2.1-4.4,3.2c-0.9,0.7-1.9,1.4-2.8,2
		c-0.6,0.5-1.3,0.9-1.9,1.4c-0.6,0.4-1.1,0.8-1.7,1.2c-0.5,0.4-1,0.8-1.6,1.2c-0.7,0.5-1.5,1.1-2.2,1.6c-0.5,0.4-1.1,0.8-1.6,1.2
		c-0.9,0.6-1.7,1.2-2.6,1.9c-0.9,0.7-1.9,1.4-2.9,2.1c-0.2,0.1-0.3,0.1-0.5,0c-2.3-1.7-4.6-3.3-6.9-5c-0.8-0.6-1.6-1.2-2.4-1.7
		c-2.6-1.9-5.3-3.8-7.9-5.7c-1.5-1.1-3-2.2-4.5-3.3c-0.2-0.1-0.2-0.2-0.1-0.3c1.1-1.5,2.4-2.8,3.9-4c0.2-0.1,0.2-0.1,0.4,0
		c1.4,1.6,2.8,3.2,4.3,4.8c2.1,2.3,4.1,4.7,6.2,7c2,2.2,3.9,4.4,5.8,6.6c0.1,0.1,0.1,0.1,0.2,0.2c-0.1-0.3-0.3-0.4-0.4-0.6
		c-1.2-1.6-2.5-3.1-3.7-4.7c-2-2.5-4-5.1-6-7.6c-0.8-1-1.6-2.1-2.5-3.1c-0.9-1.2-1.8-2.3-2.8-3.5c-0.2-0.2-0.1-0.3,0.1-0.4
		c1.1-0.7,2.1-1.4,3.3-2c0.5-0.3,1-0.5,1.5-0.8c0.2-0.1,0.3-0.1,0.3,0.1c0.5,1,1,2,1.4,3c0.7,1.5,1.4,2.9,2.1,4.4
		c0.7,1.5,1.5,3.1,2.2,4.6c0.6,1.3,1.3,2.6,1.9,3.9c0.7,1.4,1.4,2.9,2,4.3c0.3,0.7,0.7,1.4,1,2c-0.2-0.4-0.3-0.8-0.5-1.2
		c-0.5-1.1-0.9-2.3-1.4-3.4c-0.4-1-0.8-1.9-1.2-2.9c-0.5-1.1-0.9-2.3-1.4-3.4c-0.4-1-0.8-1.9-1.2-2.9c-0.5-1.1-0.9-2.3-1.4-3.4
		c-0.3-0.8-0.7-1.7-1-2.5c-0.4-1-0.8-1.9-1.2-2.9c-0.1-0.1,0-0.2,0.1-0.2c0.8-0.3,1.7-0.6,2.6-0.9c0.5-0.1,1-0.3,1.6-0.4
		c0.4-0.1,0.8-0.1,1.2-0.2c0.1,0,0.2,0,0.3,0.2c0.1,0.5,0.2,1.1,0.3,1.6c0.2,1.1,0.4,2.2,0.5,3.2c0.1,0.8,0.3,1.6,0.4,2.4
		c0.2,1.1,0.4,2.1,0.5,3.2c0.1,0.8,0.3,1.6,0.4,2.4c0.2,1.1,0.4,2.2,0.6,3.3c0.1,0.8,0.3,1.6,0.4,2.4c0.2,1.1,0.4,2.2,0.6,3.3
		c0.1,0.8,0.3,1.7,0.5,2.5c0,0.1,0,0.2,0.1,0.3c0-0.3,0-0.7-0.1-1c-0.1-1-0.2-1.9-0.3-2.9c-0.1-1.3-0.3-2.6-0.4-3.9
		c-0.1-0.7-0.1-1.3-0.2-2c-0.1-0.8-0.2-1.6-0.3-2.4c-0.1-0.7-0.1-1.4-0.2-2.1c-0.1-0.8-0.2-1.6-0.3-2.4c-0.1-0.7-0.1-1.4-0.2-2.1
		c-0.1-0.8-0.2-1.6-0.3-2.4c-0.1-0.7-0.1-1.4-0.2-2c-0.1-0.6-0.1-1.2-0.2-1.7c0-0.2,0-0.3,0.2-0.3c1.4-0.1,2.8-0.1,4.2-0.1
		c0.4,0,0.8,0.1,1.2,0.1c0.1,0,0.2,0.1,0.2,0.2c-0.1,1-0.2,2-0.3,3c-0.1,0.8-0.2,1.6-0.3,2.5c-0.1,1.2-0.3,2.3-0.4,3.5
		c-0.1,0.8-0.2,1.6-0.3,2.4c-0.1,1.2-0.3,2.3-0.4,3.5c-0.1,0.8-0.2,1.6-0.3,2.4c-0.1,1.2-0.3,2.3-0.4,3.5c-0.1,0.8-0.2,1.7-0.3,2.5
		c0,0.3-0.1,0.7-0.1,1c0.1-0.7,0.2-1.3,0.3-2c0.2-1.1,0.4-2.2,0.6-3.3c0.1-0.8,0.3-1.7,0.4-2.5c0.2-1.1,0.4-2.2,0.6-3.2
		c0.1-0.8,0.3-1.7,0.4-2.5c0.2-1.1,0.4-2.2,0.6-3.2c0.1-0.8,0.3-1.7,0.4-2.5c0.2-1.1,0.4-2.1,0.6-3.2c0.1-0.4,0.1-0.8,0.2-1.2
		c0-0.4,0.1-0.4,0.4-0.3c0.7,0.1,1.4,0.3,2.2,0.4c1,0.2,2,0.5,3,0.9c0.2,0.1,0.2,0.1,0.1,0.3c-0.3,0.7-0.6,1.4-0.9,2.1
		c-0.5,1.1-0.9,2.3-1.4,3.4c-0.5,1.1-0.9,2.2-1.4,3.4c-0.5,1.1-0.9,2.2-1.4,3.4c-0.4,1-0.8,2-1.2,3c-0.5,1.1-0.9,2.2-1.4,3.4
		c-0.5,1.2-1,2.3-1.4,3.5c0,0.1,0,0.1,0,0.2c0.2-0.3,0.3-0.6,0.4-0.9c0.6-1.3,1.3-2.7,1.9-4c0.6-1.3,1.2-2.6,1.9-3.9
		c0.6-1.3,1.3-2.6,1.9-3.9c0.6-1.3,1.2-2.6,1.9-3.9c0.6-1.3,1.3-2.6,1.9-4c0.2-0.4,0.4-0.8,0.5-1.1c0.1-0.1,0.1-0.2,0.3-0.1
		c1.6,0.6,3.1,1.4,4.4,2.4c0.2,0.1,0.3,0.3,0.5,0.4c0.2,0.1,0.2,0.3,0,0.4c-0.5,0.7-1.1,1.3-1.6,2c-1.3,1.6-2.5,3.2-3.8,4.8
		c-1.7,2.2-3.4,4.3-5.2,6.5c-1.5,1.9-2.9,3.7-4.4,5.6C352,54.4,352,54.5,351.9,54.5c0,0,0,0.1-0.1,0.1
		C351.9,54.6,351.9,54.6,351.9,54.5z"/>
	<path d="M353.1,24.4c-1.2-0.1-2.5-0.1-3.8-0.1c-0.6,0-1.2,0-1.9,0.1c-0.2,0-0.3,0-0.3-0.3c-0.1-1.1-0.3-2.3-0.4-3.4
		c-0.2-1.3-0.4-2.6-0.5-3.9c-0.1-1.2-0.3-2.3-0.5-3.5c-0.1-1-0.2-2.1-0.4-3.1c-0.1-0.5-0.1-1.1-0.2-1.6c0-0.2,0-0.3,0.2-0.4
		c0.7-0.3,1.4-0.4,2.1-0.5c1.2-0.2,2.4-0.2,3.7-0.2c1.2,0,2.3,0.1,3.5,0.3c0.4,0.1,0.7,0.2,1.1,0.2c0.2,0,0.3,0.1,0.3,0.3
		c-0.1,0.8-0.2,1.6-0.3,2.4c-0.1,1-0.3,2.1-0.4,3.1c-0.1,0.7-0.2,1.5-0.3,2.2c-0.1,1.1-0.3,2.1-0.4,3.2c-0.1,0.7-0.2,1.5-0.3,2.2
		c-0.1,0.9-0.2,1.9-0.4,2.8c0,0.2-0.1,0.3-0.3,0.2C353.4,24.4,353.2,24.4,353.1,24.4z"/>
	<path d="M358.9,8.4c1,0,1.9,0.2,2.9,0.4c1,0.2,2.1,0.5,3.1,0.9c1.1,0.4,2.2,0.9,3.3,1.5c0.2,0.1,0.2,0.2,0.1,0.4
		c-0.3,0.7-0.6,1.4-0.9,2.1c-0.6,1.3-1.1,2.5-1.7,3.8c-0.6,1.3-1.1,2.6-1.7,3.9c-0.6,1.4-1.2,2.8-1.8,4.2c0,0.1-0.1,0.1-0.1,0.2
		c-0.2,0.5-0.2,0.5-0.8,0.3c-1.3-0.4-2.6-0.8-3.9-1.1c-0.5-0.1-1.1-0.2-1.7-0.3c-0.3,0-0.3-0.1-0.3-0.4c0.1-0.6,0.2-1.2,0.3-1.9
		c0.1-0.9,0.3-1.9,0.4-2.8c0.2-1,0.3-2,0.4-3c0.1-0.9,0.3-1.9,0.4-2.8c0.2-1,0.3-2,0.4-3.1c0.1-0.7,0.2-1.3,0.3-2
		c0-0.3,0.2-0.4,0.5-0.4C358.4,8.4,358.6,8.4,358.9,8.4z"/>
	<path d="M342.1,8.4c0.2,0,0.5,0,0.8,0.1c0.1,0,0.2,0.1,0.2,0.2c0.1,0.9,0.2,1.7,0.4,2.6c0.2,1,0.3,2,0.5,3c0.1,0.9,0.3,1.9,0.4,2.8
		c0.2,1,0.3,2,0.5,3c0.1,0.9,0.3,1.8,0.4,2.7c0.1,0.5,0.2,1,0.2,1.5c0.1,0.4,0,0.5-0.4,0.5c-0.9,0.1-1.9,0.3-2.8,0.6
		c-0.8,0.2-1.7,0.5-2.5,0.7c-0.1,0-0.3,0.1-0.4,0.1c-0.3,0.2-0.4,0-0.5-0.2c-0.9-2.1-1.8-4.1-2.7-6.2c-1-2.3-2-4.7-3.1-7
		c-0.2-0.4-0.3-0.8-0.5-1.2c-0.1-0.2,0-0.3,0.1-0.4c0.9-0.5,1.8-0.9,2.8-1.3c0.8-0.3,1.6-0.6,2.4-0.8c1-0.3,2-0.5,3-0.6
		C341.3,8.4,341.6,8.4,342.1,8.4z"/>
	<path d="M330.8,12.2c0.1,0,0.2,0,0.2,0.2c0.4,1,0.9,2,1.4,3c0.6,1.2,1.1,2.5,1.7,3.7c0.6,1.2,1.1,2.5,1.7,3.7
		c0.5,1.2,1.1,2.4,1.6,3.6c0.2,0.4,0.2,0.4-0.2,0.5c-1.8,0.8-3.6,1.8-5.2,3c-0.2,0.1-0.2,0.1-0.3,0c-1.1-1.3-2.1-2.6-3.2-4
		c-0.9-1.2-1.9-2.3-2.8-3.5c-1.3-1.5-2.5-3.1-3.8-4.6c-0.1-0.2-0.1-0.3,0-0.4c1-0.9,2-1.8,3.1-2.5c1.1-0.8,2.3-1.4,3.5-2
		C329.2,12.6,329.9,12.3,330.8,12.2z"/>
	<path d="M379.2,17.8c0,0-0.1,0.1-0.1,0.2c-1.4,1.7-2.8,3.4-4.2,5.1c-1.9,2.3-3.8,4.6-5.6,7c-0.1,0.2-0.2,0.2-0.4,0
		c-1.7-1.2-3.5-2.2-5.4-3c-0.2-0.1-0.2-0.2-0.1-0.4c0.7-1.5,1.4-3,2-4.5c0.7-1.5,1.4-3,2-4.5c0.7-1.6,1.4-3.2,2.2-4.8
		c0.1-0.1,0.1-0.2,0.2-0.3c0.1-0.2,0.2-0.2,0.4-0.2c0.6,0.1,1.2,0.3,1.8,0.6c2.4,1.1,4.6,2.5,6.6,4.3c0.2,0.2,0.4,0.3,0.5,0.5
		C379.1,17.6,379.2,17.7,379.2,17.8z"/>
	<path d="M320.1,19.1c0.1,0,0.2,0.1,0.3,0.1c1.3,1.5,2.6,3,3.8,4.5c2,2.3,3.9,4.6,5.9,6.9c0.4,0.5,0.4,0.5-0.1,0.9
		c-1.5,1.3-2.8,2.7-4,4.2c-0.1,0.2-0.2,0.2-0.4,0.1c-2.1-1.5-4.3-3-6.4-4.4c-2-1.4-4-2.8-6.1-4.2c-0.3-0.2-0.2-0.3-0.1-0.5
		c0.6-1,1.3-2,2-3c0.9-1.2,1.9-2.3,3.1-3.2c0.5-0.5,1.1-0.9,1.7-1.2C319.9,19.2,320,19.1,320.1,19.1z"/>
	<path d="M380.8,19.2c0.3,0.1,0.5,0.3,0.8,0.4c1.3,0.8,2.3,1.9,3.3,3.1c1.1,1.2,2.1,2.6,2.9,4c0.2,0.4,0.2,0.4-0.1,0.6
		c-2,1.4-4,2.8-6,4.1c-2,1.4-4,2.7-5.9,4.1c-0.2,0.1-0.3,0.2-0.5,0.3c-0.2,0.1-0.3,0.1-0.4-0.1c-0.7-0.9-1.4-1.8-2.2-2.6
		c-0.7-0.7-1.3-1.3-2.1-1.9c-0.2-0.1-0.2-0.2,0-0.4c2.9-3.4,2-2.4,5.5-6.4c1.5-1.7,3-3.5,4.4-5.2C380.5,19.3,380.6,19.1,380.8,19.2z
		"/>
</g>
<g>
	<path d="M79.7,96.4c0,6.7-2.5,12.8-7.4,18.4c-5.3,6-11.5,9-18.7,9H26.6c-2.1,0-3.2-1.1-3.2-3.3V31.6c0-2.2,1.4-3.3,4.1-3.3h23.8
		c6,0,11,2.2,14.9,6.7c3.9,4.4,5.9,9.7,5.9,15.8c0,4.5-1.1,8.4-3.4,11.6c-2.3,3.2-5.6,6-9.9,8.4c6.2,1.5,11.3,4.5,15.1,9.1
		C77.8,84.4,79.7,89.9,79.7,96.4z M75.1,97.1c0-6.3-2.4-11.7-7-16.2c-4.7-4.5-10.3-6.7-16.7-6.7h-23V120h25.2
		c5.3,0,10.2-2.4,14.7-7.2C72.8,107.9,75.1,102.7,75.1,97.1z M67.8,50.8c0-4.7-1.4-8.8-4.3-12.1c-3.5-4.1-8.3-6.2-14.4-6.2H28.8
		v36.7h20c5.1,0,9.5-1.8,13.3-5.4C65.9,60.3,67.8,56,67.8,50.8z"/>
	<path d="M156,91.1c0,1.6-0.4,2.7-1.1,3.5H89.7c0,7.6,3.3,14,10,19.3c6.2,5,13.3,7.4,21.2,7.4c6.8,0,12.9-2,18.5-5.9
		c5.6-4,9.3-9.2,11.2-15.6h5.1c-1.6,7.6-6,13.8-13.1,18.5c-6.5,4.3-13.9,6.5-22.2,6.5c-9.5,0-17.7-3-24.7-8.9
		c-7.3-6.2-10.9-14-10.9-23.3c0-8.3,3.7-15.6,11-21.8c7.3-6.2,15.2-9.3,23.7-9.3c8.8,0,16.8,2.6,24.2,7.9
		C151.9,75.5,156,82.7,156,91.1z M151.4,90.8c0-7.8-3.8-14-11.4-18.8c-6.4-4-13.8-6.1-22.2-6.1c-7,0-13.2,2.4-18.8,7.3
		c-5.5,4.8-8.7,10.7-9.4,17.6H151.4z"/>
	<path d="M212.7,123.8h-4.6V84.2l-0.9-4c-1.5-4.1-4-7.5-7.7-10.1c-3.6-2.6-7.6-3.9-11.8-3.9h-3.2c-4,0-7.4,1.2-10.1,3.5
		c-2.7,2.3-4.9,5.5-6.5,9.5l-1.3,3.8v40.7h-4.6V84.2c0-6.2,2.6-11.5,7.8-15.8c5.2-4.3,11.1-6.4,17.5-6.4h3.8
		c5.3,0,10.2,2.3,14.7,6.8c4.5,4.5,6.8,9.5,6.8,14.7V123.8z"/>
	<path d="M265.2,123.8h-44.7c-1-0.5-1.4-1.3-1.4-2.4c0-0.3,0.5-1.2,1.4-2.7L259.1,67h-39.5v-4.3h43.9c0.8,0.5,1.4,1.2,1.7,1.9v0.8
		l-0.5,1.7l-39.1,52.3h39.6V123.8z"/>
	<path d="M341,123.8h-3.8v-15.4c-3.3,5-7.7,8.9-13.3,11.7c-5.6,2.8-11.5,4.2-17.7,4.2c-9.5,0-17.7-2.8-24.7-8.4
		c-7.4-5.9-11.1-13.5-11.1-22.9c0-9.5,4.1-17.2,12.4-23.2c7.4-5.4,16-8.1,26-8.1c1.6,0,2.9,0.1,3.8,0.3c0.9,0.2,2.3,0.6,4.1,1.3
		c7.5,2.3,13.4,6.2,17.8,11.5c4.4,5.3,6.6,11.8,6.6,19.4V123.8z M336.4,93.7c0-7.9-3.1-14.5-9.2-19.8c-6.1-5.3-13.3-7.9-21.4-7.9
		c-7.9,0-15.1,2.7-21.4,8.2c-6.3,5.4-9.4,12.1-9.4,19.9c0,7.7,3.3,14.3,9.8,19.6c6.2,5.1,13.3,7.6,21.3,7.6c8.3,0,15.4-2.6,21.4-7.7
		C333.5,108.4,336.4,101.8,336.4,93.7z"/>
	<path d="M353.1,124.2h-4.9V63.4h4.9V124.2z"/>
</g>
</svg>
